<svg width="1012" height="709" viewBox="0 0 1012 709" fill="none" xmlns="http://www.w3.org/2000/svg">
<path fill-rule="evenodd" clip-rule="evenodd" d="M496.428 0.257207C494.937 0.380251 490.774 0.6232 487.178 0.796775C457.758 2.21735 425.891 8.66077 397.564 18.9163C374.66 27.2082 352.695 38.1335 332.71 51.175L327.864 54.3371L340.201 54.4116L352.537 54.4858L355.752 52.6615C393.061 31.4911 435.352 18.3938 478.443 14.6657C494.639 13.2645 515.062 13.2645 531.258 14.6657C574.426 18.4007 616.328 31.3789 653.948 52.6667L657.164 54.4858L669.5 54.4116L681.836 54.3371L676.991 51.1733C656.971 38.1035 635.134 27.2419 612.137 18.9163C583.914 8.69874 552.043 2.23876 522.836 0.815902C519.381 0.647466 514.885 0.384248 512.844 0.230371C508.617 -0.0876601 500.444 -0.0742423 496.428 0.257207ZM309.578 90.6112C296.506 92.3829 284.575 97.2904 275.458 104.646C272.444 107.077 267.648 112.14 265.563 115.092C262.177 119.883 259.409 126.194 257.984 132.372L257.349 135.13L257.265 216.208C257.206 273.536 257.272 297.722 257.491 298.775C258.83 305.236 265.255 309.584 271.988 308.586C276.964 307.848 280.685 304.903 282.416 300.331L283.028 298.713L283.171 218.349L283.314 137.984L283.989 135.986C284.967 133.089 286.058 131.068 287.851 128.827C292.377 123.172 300.043 119.041 309.898 116.947L313.004 116.287L373.527 116.203C417.111 116.142 434.847 116.209 436.896 116.441C449.532 117.871 461.066 124.548 465.125 132.782C467.262 137.118 467.145 135.442 467.241 163.036L467.327 187.802H386.811H306.295V200.791V213.781H386.802H467.309L467.312 255.676C467.315 291.076 467.379 297.808 467.724 299.104C469.096 304.259 473.028 307.753 478.383 308.576C485.108 309.608 491.654 305.216 492.989 298.775C493.207 297.722 493.273 273.577 493.214 216.35L493.131 135.415L492.478 132.56C491.493 128.247 490.316 124.929 488.429 121.141C480.235 104.69 461.408 92.8888 439.474 90.4553C437.835 90.2735 414.38 90.1801 374.669 90.1972C324.015 90.2192 311.902 90.2963 309.578 90.6112ZM570.512 90.7836C555.262 92.5048 540.19 99.5777 530.681 109.474C523.916 116.515 519.955 124.005 518.067 133.323L517.412 136.557V198.936V261.314L518.067 264.548C518.962 268.967 520.136 272.389 522.147 276.445C530.315 292.914 549.097 304.691 571.083 307.13C572.713 307.311 596.257 307.416 635.517 307.418C702.246 307.42 699.594 307.475 706.971 305.949C716.734 303.929 726.559 299.514 734.095 293.758C736.683 291.781 741.508 287.007 743.513 284.439C748.038 278.644 750.926 272.528 752.546 265.311C753.165 262.556 753.191 261.846 753.292 245.042C753.403 226.542 753.328 225.016 752.053 219.923C748.394 205.315 737.179 192.914 721.209 185.818C715.347 183.213 709.229 181.447 702.121 180.307L698.124 179.665H654.73H611.336L609.504 180.327C604.183 182.248 600.923 186.932 600.923 192.655C600.923 198.587 604.483 203.414 610.152 205.167C611.459 205.571 616.437 205.64 655.016 205.788C698.121 205.953 698.427 205.959 701.083 206.569C709.333 208.465 716.227 211.882 720.774 216.327C723.04 218.543 724.203 220.167 725.547 222.998C727.31 226.711 727.376 227.443 727.381 243.558C727.387 260.066 727.358 260.344 725.189 264.863C724.077 267.182 723.514 267.941 721.145 270.326C719.632 271.85 717.451 273.703 716.299 274.443C711.846 277.308 706.382 279.451 700.48 280.647L697.267 281.298H635.174H573.081L570.084 280.64C557.661 277.911 548.938 272.147 545.226 264.215C543.246 259.984 543.413 265.558 543.314 200.506C543.255 161.922 543.324 140.94 543.514 139.498C544.845 129.38 553.527 121.458 567.073 118.003C569.122 117.481 571.954 116.914 573.367 116.743C575.154 116.526 597.238 116.432 645.899 116.431C694.911 116.431 716.369 116.337 717.556 116.121C724.838 114.791 729.437 107.387 727.53 100.066C726.353 95.5487 723.37 92.3267 719.148 91.0149C717.36 90.4593 716.281 90.4516 645.065 90.4884C604.216 90.5095 571.803 90.6377 570.512 90.7836ZM10.2468 116.15C5.42414 116.988 1.9041 119.972 0.533202 124.382C-0.181939 126.684 -0.178513 128.167 0.548333 130.52C1.45532 133.457 3.43402 135.789 6.25005 137.24C9.57424 138.952 3.04091 138.841 100.246 138.841C149.353 138.841 189.524 138.905 189.516 138.984C189.507 139.062 147.999 172.271 97.2759 212.782C46.5529 253.292 4.40952 287.013 3.62415 287.716C1.21979 289.87 -0.211058 293.514 0.0435946 296.836C0.467255 302.358 4.43893 306.472 10.2468 307.404C12.8293 307.818 222.905 307.82 225.503 307.405C229.557 306.759 233.034 304.299 234.712 300.89C235.569 299.149 235.638 298.799 235.638 296.15C235.638 293.648 235.542 293.085 234.878 291.669C233.453 288.629 231.035 286.575 227.42 285.333L225.646 284.724L136.044 284.581L46.4424 284.439L65.9573 268.861C80.7934 257.017 226.825 140.304 232.413 135.824C233.078 135.291 233.872 134.163 234.554 132.784C235.611 130.645 235.638 130.514 235.638 127.43C235.638 124.441 235.587 124.167 234.71 122.384C233.086 119.087 229.81 116.801 225.788 116.16C223.577 115.807 12.2741 115.797 10.2468 116.15ZM829.733 116.18C821.264 116.922 812.515 119.136 804.56 122.551C790.481 128.595 780.333 138.695 776.687 150.294C774.969 155.76 775.062 151.288 775.062 228.482C775.062 306.725 774.901 300.433 776.987 303.437C778.245 305.249 780.94 307.186 783.144 307.864C785.249 308.511 788.963 308.71 791.109 308.289C795.863 307.357 799.509 304.158 800.634 299.93C800.968 298.679 801.035 292.3 801.038 261.814L801.041 225.2H881.548H962.055V213.638V202.076H881.538H801.021L801.107 180.022L801.193 157.968L801.854 156.192C804.732 148.464 813.174 142.838 826.286 139.911L829.733 139.141L891.54 139.057C958.988 138.964 956.1 138.903 962.53 140.573C975.025 143.819 983.073 150.223 984.752 158.254C985.112 159.976 985.17 169.83 985.174 229.464C985.18 306.508 985.015 300.318 987.151 303.421C988.417 305.26 991.067 307.189 993.248 307.86C994.07 308.113 995.798 308.392 997.086 308.481C1003.03 308.888 1007.93 306.366 1010.11 301.775L1011.02 299.855V228.198C1011.02 159.305 1011 156.447 1010.48 154.114C1010.19 152.78 1009.56 150.596 1009.09 149.261C1003.22 132.601 985.482 120.637 960.77 116.662L956.774 116.019L894.681 115.975C860.529 115.95 831.303 116.043 829.733 116.18ZM365.819 324.738C356.029 325.531 348.033 328.097 340.839 332.755C330.935 339.168 325.118 348.281 324.005 359.131C323.602 363.059 323.597 474.326 324 476.45C324.598 479.604 326.341 481.986 329.013 483.301C330.231 483.901 330.819 483.993 333.416 483.992C335.99 483.991 336.587 483.898 337.64 483.337C339.528 482.331 341.029 480.819 341.901 479.043L342.695 477.427L342.842 418.474C342.962 370.434 343.059 359.31 343.369 358.379C344.259 355.708 345.758 353.397 347.945 351.322C351.254 348.184 355.147 346.161 360.523 344.786C364.858 343.677 366.542 343.643 411.782 343.745C452.669 343.837 455.894 343.88 457.849 344.35C467.792 346.742 474.141 351.407 476.546 358.086C476.753 358.659 476.908 365.178 477.008 377.435L477.158 395.92L417.777 395.992L358.396 396.064V405.485V414.906L417.777 414.978L477.158 415.05L477.08 489.061C477.028 539.349 477.098 563.697 477.301 565.021C477.817 568.403 479.575 570.917 482.44 572.372C484.347 573.341 488.015 573.474 490.19 572.655C492.323 571.85 494.209 570.147 495.199 568.13L496 566.499L496.081 463.295C496.137 390.959 496.07 359.385 495.855 357.728C493.59 340.263 476.967 326.735 455.461 324.855C452.375 324.585 369.048 324.476 365.819 324.738ZM724.317 387.999L724.398 451.448L725.02 453.757C728.957 468.363 741.133 478.76 758.647 482.471L761.787 483.137L825.498 483.213C889.126 483.289 889.211 483.289 890.773 482.704C892.858 481.924 894.75 480.207 895.735 478.202C896.442 476.762 896.536 476.253 896.536 473.858C896.536 471.691 896.413 470.881 895.926 469.827C895.051 467.933 893.447 466.288 891.586 465.374L889.97 464.58L827.306 464.427C764.787 464.275 764.636 464.273 762.073 463.671C752.503 461.424 746.055 456.645 743.873 450.184C743.247 448.329 743.239 448.082 743.151 428.68L743.062 409.053H871.634C986.05 409.053 1000.37 409.005 1001.67 408.618C1003.54 408.064 1005.34 406.701 1006.52 404.949C1009.48 400.547 1008.18 394.002 1003.84 391.46C1001.07 389.834 1009.83 389.935 871.199 389.93L743.088 389.926V366.804V343.681L816.529 343.608L889.97 343.534L891.604 342.732C893.402 341.849 894.869 340.323 895.873 338.292C896.795 336.426 896.823 332.165 895.926 330.224C894.598 327.351 892.104 325.465 888.835 324.86C887.647 324.641 863.24 324.549 805.695 324.549H724.237L724.317 387.999ZM553.811 325.15C539.32 326.779 526.77 333.743 520.002 343.91C517.863 347.122 516.5 350.074 515.348 353.985L514.558 356.667L514.415 488.418L514.271 620.17L502.852 620.148C488.795 620.121 479.576 619.542 466.31 617.856C406.521 610.258 350.525 585.031 305.153 545.255C294.138 535.598 283.03 524.353 274.178 513.898L272.184 511.543H263.67H255.155L256.53 513.299C257.287 514.265 259.626 517.124 261.729 519.651C285.539 548.263 314.602 572.747 346.808 591.322C385.242 613.49 427.175 627.096 471.734 631.857C482.926 633.053 501.131 633.855 509.731 633.532L514.407 633.356L514.482 667.873L514.557 702.39L515.222 703.74C517.989 709.36 525.562 710.772 530.2 706.533C531.159 705.656 532.013 704.538 532.433 703.609L533.113 702.104L533.189 667.204C533.231 648.008 533.375 632.303 533.509 632.303C533.643 632.303 535.665 632.104 538.001 631.861C599.44 625.462 657.728 601.08 705.546 561.779C722.555 547.8 740.33 529.705 753.17 513.299L754.545 511.543H746.031H737.517L735.522 513.898C728.777 521.864 717.301 533.744 709.401 540.939C661.871 584.219 603.308 610.92 539.679 618.32C537.01 618.63 534.473 618.885 534.041 618.885L533.256 618.885L533.261 490.203C533.266 349.552 533.142 359.571 534.92 356.049C537.589 350.763 543.615 346.733 551.813 344.75C554.003 344.221 555.38 344.151 565.944 344.036C574.15 343.947 578.417 344.012 580.218 344.254C589.215 345.461 597.287 350.2 600.227 356.002C601.876 359.255 601.773 353.616 601.773 440.36C601.773 498.248 601.86 520.493 602.093 521.592C603.065 526.176 606.594 529.004 611.329 528.992C613.628 528.986 614.738 528.706 616.46 527.696C617.98 526.806 619.342 525.277 620.143 523.562L620.757 522.248L620.9 440.885L621.043 359.521L621.665 357.894C623.889 352.076 628.823 348.007 636.65 345.534C641.013 344.156 643.27 343.965 655.158 343.965C667.561 343.965 669.48 344.152 674.647 345.868C682.259 348.397 687.617 353.352 688.977 359.12C689.354 360.719 689.409 368.211 689.412 418.801C689.417 475.605 689.427 476.686 689.981 478.479C691.647 483.874 697.708 486.399 703.14 483.961C705.174 483.048 706.574 481.625 707.601 479.425L708.401 477.713L708.485 419.616C708.545 378.178 708.478 360.71 708.25 358.696C707.172 349.151 702.135 340.707 693.757 334.403C688.882 330.734 681.115 327.362 674.417 326.008C669.695 325.053 666.138 324.835 655.301 324.835C641.129 324.835 636.619 325.349 629.02 327.832C622.006 330.123 617.471 332.723 613.602 336.67L611.301 339.019L609.084 336.804C602.281 330.005 593.328 326.194 581.646 325.123C577.933 324.783 556.895 324.803 553.811 325.15ZM175.288 326.586C163.069 327.875 151.226 333.639 144.276 341.679C139.905 346.735 137.041 352.929 136.166 359.217C135.982 360.543 135.86 367.086 135.86 375.668V389.918L71.5548 389.993L7.24925 390.068L5.83752 390.719C2.90387 392.072 1.27347 393.957 0.373901 397.036C-0.887088 401.352 1.45246 406.363 5.62883 408.293L6.96376 408.91L71.4121 408.984L135.86 409.058V429.573C135.86 451.847 135.906 452.634 137.478 457.443C141.541 469.87 152.967 479.504 167.978 483.16C174.425 484.73 173.61 484.707 221.934 484.707C270.51 484.707 269.746 484.729 276.176 483.101C287.388 480.261 296.896 473.944 302.388 465.684C304.62 462.327 306.031 459.232 307.099 455.35L307.859 452.59L307.86 438.03L307.86 423.47L307.064 420.615C302.638 404.748 287.37 393.492 267.755 391.635C265.556 391.427 254.479 391.352 234.21 391.41L203.949 391.496L202.365 392.238C200.222 393.244 198.832 394.527 197.969 396.297C196.924 398.441 196.597 400.516 196.975 402.612C197.571 405.922 199.296 408.155 202.365 409.595L203.949 410.338L236.066 410.491L268.183 410.643L271.038 411.401C280.228 413.839 286.308 418.517 288.369 424.734C288.95 426.486 288.998 427.271 289.101 436.569C289.229 448.081 289.042 450.21 287.64 453.161C285.085 458.542 279.735 462.262 270.895 464.804L268.754 465.42L223.087 465.505C182.478 465.582 177.154 465.541 175.019 465.141C165.008 463.265 157.612 458.024 155.547 451.34C154.997 449.562 154.984 448.495 154.984 405.485C154.984 362.475 154.997 361.406 155.547 359.629C157.479 353.378 163.907 348.49 173.259 346.16C175.675 345.559 175.914 345.555 229.071 345.402L282.457 345.247L284.052 344.499C286.079 343.548 287.61 342.017 288.561 339.99C289.194 338.64 289.309 338.002 289.309 335.826C289.309 333.647 289.195 333.018 288.563 331.687C287.614 329.689 286.025 328.1 284.027 327.151L282.457 326.405L230.071 326.369C201.258 326.35 176.606 326.447 175.288 326.586Z" fill="#1B253F"/>
</svg>
